<?xml version="1.0" encoding="utf-8"?>
<svg id="acm_india_council_logo" xmlns="http://www.w3.org/2000/svg" width="464.216" height="158.577" viewBox="0 0 464.216 158.577">
  <path id="Path_48035" data-name="Path 48035" d="M204.647,96.947,172.8,128.793h17.417l31.846-31.846L190.217,65.1H172.8Z" transform="translate(-46.872 -17.658)" fill="#005daa"/>
  <path id="Path_48036" data-name="Path 48036" d="M84.017,47.442l29.952-30.025,22.664,22.664H154.05L113.969,0,66.6,47.442Z" transform="translate(-18.065)" fill="#0093d0"/>
  <path id="Path_48037" data-name="Path 48037" d="M136.633,159.86l-22.664,22.664L84.017,152.5H66.6l47.369,47.442L154.05,159.86Z" transform="translate(-18.065 -41.365)" fill="#0093d0"/>
  <path id="Path_48038" data-name="Path 48038" d="M21.207,102.731c-5.83,0-10.275,1.385-10.275,5.611,0,2.842,1.895,4.227,4.373,4.227a6.123,6.123,0,0,0,5.757-4.081,7.943,7.943,0,0,0,.219-1.895v-3.862Zm10.64,8.162a46.186,46.186,0,0,0,.583,8.6H22.518l-.656-3.571h-.219a12.838,12.838,0,0,1-10.2,4.373C4.227,120.294,0,115.047,0,109.435,0,100.253,8.308,95.88,20.842,95.88v-.437c0-1.895-1.02-4.591-6.486-4.591a20.845,20.845,0,0,0-9.838,2.624L2.478,86.407A29.163,29.163,0,0,1,16.251,83.2c11.806,0,15.522,7,15.522,15.3v12.389Z" transform="translate(0 -22.568)" fill="#0093d0"/>
  <path id="Path_48039" data-name="Path 48039" d="M79.513,118.617a25.338,25.338,0,0,1-9.911,1.676c-11.441,0-18.8-7.069-18.8-18.219C50.8,91.654,57.942,83.2,71.132,83.2a25.7,25.7,0,0,1,8.454,1.385L77.837,92.82a15.156,15.156,0,0,0-6.194-1.093c-5.83,0-9.62,4.154-9.547,9.984,0,6.559,4.373,10.057,9.765,10.057A15.632,15.632,0,0,0,78.2,110.6l1.312,8.016Z" transform="translate(-13.779 -22.568)" fill="#0093d0"/>
  <path id="Path_48040" data-name="Path 48040" d="M100.392,95.3c0-4.445-.146-8.162-.292-11.3h9.4l.437,4.883h.219A12.291,12.291,0,0,1,120.869,83.2c4.664,0,8.235,2.4,9.765,6.122h.146a15.5,15.5,0,0,1,4.664-4.373,13.571,13.571,0,0,1,6.777-1.749c6.85,0,11.952,4.81,11.952,15.377v20.915H143.461V100.253c0-5.174-1.676-8.162-5.247-8.162a5.512,5.512,0,0,0-5.174,3.862,11.533,11.533,0,0,0-.364,2.769v20.769H121.89V99.6c0-4.445-1.6-7.506-5.174-7.506a5.67,5.67,0,0,0-5.174,3.935,7.5,7.5,0,0,0-.437,2.842v20.624H100.392V95.3Z" transform="translate(-27.152 -22.568)" fill="#0093d0"/>
  <g id="Group_13272" data-name="Group 13272" transform="translate(186.051 60.414)">
    <path id="Path_48041" data-name="Path 48041" d="M267.835,85.4l-6.559,34.4H255.3l6.559-34.4Z" transform="translate(-255.3 -83.578)" fill="#005daa"/>
    <path id="Path_48042" data-name="Path 48042" d="M273.1,123.161l3.207-17.126c.583-2.988.947-5.539,1.312-7.725h5.247l-.51,4.518h.073a10.714,10.714,0,0,1,8.964-5.028c3.5,0,6.34,2.113,6.34,6.85a29.882,29.882,0,0,1-.437,4.154l-2.769,14.429h-5.9l2.623-14.065a19.755,19.755,0,0,0,.292-2.988c0-2.04-.729-3.571-3.134-3.571-2.7,0-6.194,3.279-7.215,9.109l-2.113,11.514H273.1Z" transform="translate(-260.128 -86.942)" fill="#005daa"/>
    <path id="Path_48043" data-name="Path 48043" d="M339.7,82.9l-5.174,27.4a63.311,63.311,0,0,0-1.093,8.818h-5.466l.51-4.445h-.073c-2.259,3.425-5.32,5.028-8.526,5.028-4.445,0-7.579-3.644-7.579-9.255,0-8.745,6.413-16.761,15.522-16.761a9.02,9.02,0,0,1,3.789.729L333.8,82.9h5.9Zm-8.964,16.4a6.181,6.181,0,0,0-3.425-.947c-5.1,0-8.891,5.684-8.891,11.223,0,2.988,1.166,5.393,4.008,5.393,2.624,0,5.83-2.915,6.85-8.089Z" transform="translate(-270.761 -82.9)" fill="#005daa"/>
    <path id="Path_48044" data-name="Path 48044" d="M349.7,119.5l4.664-24.85h5.976L355.6,119.5Zm5.684-31.555a3.548,3.548,0,0,1,3.571-3.644,3.043,3.043,0,0,1,3.134,3.207,3.545,3.545,0,0,1-3.644,3.571A2.889,2.889,0,0,1,355.384,87.944Z" transform="translate(-280.906 -83.28)" fill="#005daa"/>
    <path id="Path_48045" data-name="Path 48045" d="M383.56,123.161c.073-1.458.219-3.5.437-5.611h-.146c-2.478,4.591-5.684,6.194-8.891,6.194-4.445,0-7.36-3.5-7.36-8.454,0-8.454,5.9-17.49,17.49-17.49a27.693,27.693,0,0,1,7.506,1.093l-2.551,12.972a58.989,58.989,0,0,0-1.02,11.3Zm2.478-20.551a10.648,10.648,0,0,0-2.478-.219c-5.539,0-9.765,6.194-9.765,11.806,0,2.624.947,4.737,3.571,4.737,2.769,0,6.122-3.5,7.288-9.765Z" transform="translate(-285.761 -86.942)" fill="#005daa"/>
    <path id="Path_48046" data-name="Path 48046" d="M443.412,118.587a23.367,23.367,0,0,1-8.964,1.53c-8.964,0-14.648-5.539-14.648-14.429A20.33,20.33,0,0,1,440.715,84.7c3.789,0,6.559.947,7.506,1.6l-1.749,4.81a15.227,15.227,0,0,0-6.486-1.239,13.255,13.255,0,0,0-8.745,3.134,15.96,15.96,0,0,0-4.956,12.024c0,5.757,2.988,10.13,9.765,10.13a17.25,17.25,0,0,0,6.923-1.312Z" transform="translate(-299.92 -83.388)" fill="#005daa"/>
    <path id="Path_48047" data-name="Path 48047" d="M482.586,108.048c0,8.454-5.9,15.668-14.356,15.668-6.267,0-10.13-4.373-10.13-10.275,0-8.454,5.9-15.741,14.356-15.741C479.088,97.7,482.586,102.51,482.586,108.048ZM464.221,113.3c0,3.425,1.822,5.83,4.883,5.83,4.445,0,7.433-6.122,7.433-11.077,0-2.551-1.093-5.684-4.737-5.684C466.918,102.291,464.221,108.631,464.221,113.3Z" transform="translate(-310.309 -86.914)" fill="#005daa"/>
    <path id="Path_48048" data-name="Path 48048" d="M521.413,98.446l-3.28,17.126c-.583,2.988-.947,5.539-1.239,7.725h-5.247l.51-4.372h-.073c-2.4,3.206-5.539,4.883-8.6,4.883-3.644,0-6.486-1.968-6.486-7.069a20.79,20.79,0,0,1,.51-4.445l2.624-13.919h5.9l-2.551,13.555a22.028,22.028,0,0,0-.437,3.425c0,2.04.8,3.5,3.134,3.5,2.769,0,5.976-3.279,6.923-8.454l2.259-12.1h6.049Z" transform="translate(-320.861 -87.077)" fill="#005daa"/>
    <path id="Path_48049" data-name="Path 48049" d="M533.4,123.161l3.207-17.126c.583-2.988.947-5.539,1.312-7.725h5.247l-.51,4.518h.073a10.714,10.714,0,0,1,8.964-5.028c3.5,0,6.34,2.113,6.34,6.85a29.856,29.856,0,0,1-.437,4.154l-2.769,14.429h-5.9l2.623-14.065a19.77,19.77,0,0,0,.292-2.988c0-2.04-.729-3.571-3.134-3.571-2.7,0-6.194,3.279-7.214,9.109l-2.113,11.514H533.4Z" transform="translate(-330.734 -86.942)" fill="#005daa"/>
    <path id="Path_48050" data-name="Path 48050" d="M589.8,122.259a16.846,16.846,0,0,1-7.142,1.385c-6.194,0-10.057-4.008-10.057-9.911A15.709,15.709,0,0,1,588.414,97.7a14.176,14.176,0,0,1,5.029.947l-1.53,4.664a8.611,8.611,0,0,0-3.717-.729c-5.757,0-9.4,5.32-9.4,10.494,0,3.717,2.113,5.83,5.466,5.83a12.52,12.52,0,0,0,5.32-1.166Z" transform="translate(-341.367 -86.914)" fill="#005daa"/>
    <path id="Path_48051" data-name="Path 48051" d="M602,119.5l4.664-24.85h5.976L607.9,119.5Zm5.611-31.555a3.548,3.548,0,0,1,3.571-3.644,3.042,3.042,0,0,1,3.134,3.207,3.544,3.544,0,0,1-3.644,3.571A2.966,2.966,0,0,1,607.611,87.944Z" transform="translate(-349.341 -83.28)" fill="#005daa"/>
    <path id="Path_48052" data-name="Path 48052" d="M619.4,119.119,626.323,82.9h5.9L625.3,119.119Z" transform="translate(-354.061 -82.9)" fill="#005daa"/>
  </g>
</svg>
