<?xml version="1.0" encoding="UTF-8" standalone="no"?>
<!-- Created with Inkscape (http://www.inkscape.org/) -->

<svg
   width="115mm"
   height="66mm"
   viewBox="0 0 115 66"
   version="1.1"
   id="svg1"
   xmlns="http://www.w3.org/2000/svg"
   xmlns:svg="http://www.w3.org/2000/svg">
  <defs
     id="defs1" />
  <rect
     style="display:none;fill:#000000;fill-opacity:1;stroke-width:0.261187"
     id="rect2"
     width="114.78243"
     height="42.349216"
     x="0.18379708"
     y="2.7661989" />
  <g
     id="layer1">
    <path
       style="font-size:192px;font-family:Herculanum;-inkscape-font-specification:Herculanum;white-space:pre;fill:#cc0000"
       d="m 101.16417,254.62665 v -30.912 q 0,-12.288 -0.192,-22.848 -0.192,-10.752 -0.192,-16.896 0,-2.304 -1.535998,-3.84 -1.536,-1.536 -3.072,-1.536 -1.536,0 -4.416,1.536 -2.88,1.536 -5.76,3.648 -2.88,2.112 -4.992,4.224 -2.112,2.112 -2.112,3.264 0,1.728 0.576,2.496 0.768,0.576 1.728,0.96 1.152,0.384 2.112,0.96 0.96,0.576 1.536,2.112 1.152,3.456 1.728,8.064 0.768,4.608 1.152,12.864 0.576,8.064 0.576,20.736 0.192,12.672 0.192,32.256 0,9.408 -2.112,16.704 -1.92,7.296 -5.184,12.096 -3.264,4.8 -7.104,7.296 -3.84,2.496 -7.68,2.496 -4.032,0 -5.952,-0.192 -1.92,-0.192 -3.648,-0.192 -3.264,0 -3.264,2.88 0,1.536 0.96,3.264 0.96,1.92 2.304,3.648 1.344,1.728 2.88,2.88 1.344,1.152 2.496,1.152 0.576,0 3.648,-0.768 3.072,-0.576 7.296,-3.072 4.416,-2.304 9.216,-6.912 4.992,-4.608 9.024,-12.288 4.224,-7.68 6.912,-18.816 2.879998,-11.328 2.879998,-27.264 z m 92.73604,-16.512 h -25.92 q -2.88,0 -4.992,0.96 -2.112,0.768 -3.648,2.112 0.768,-14.4 3.264,-23.616 2.496,-9.216 5.952,-14.4 3.648,-5.376 7.872,-7.296 4.416,-1.92 9.024,-1.92 h 11.328 q 3.648,0 3.648,-4.224 0,-3.264 -2.88,-4.416 -2.88,-1.344 -10.944,-1.344 -8.064,0 -15.744,3.456 -7.488,3.264 -13.248,11.328 -5.76,7.872 -9.408,20.928 -3.456,12.864 -3.456,32.064 0,5.376 0.384,11.328 0.384,5.952 1.92,11.904 1.536,5.76 4.416,11.136 3.072,5.184 8.256,9.216 5.184,4.032 12.864,6.336 7.68,2.496 18.624,2.496 7.296,0 10.176,-1.536 2.88,-1.536 2.88,-3.072 0,-2.496 -1.536,-3.264 -1.344,-0.768 -5.568,-0.768 -19.776,0 -28.8,-11.52 -9.024,-11.712 -9.024,-34.752 5.76,-0.192 13.056,-0.192 7.488,-0.192 16.128,-0.96 0.96,0 2.304,-0.96 1.536,-0.96 3.072,-2.304 1.536,-1.344 2.496,-2.496 1.152,-1.344 1.152,-1.92 0,-2.304 -3.648,-2.304 z m 63.16817,14.208 v -54.336 q 2.304,-1.536 6.144,-2.688 3.84,-1.344 7.104,-1.344 2.688,0 8.256,2.112 5.568,2.112 11.136,7.104 5.76,4.8 9.984,12.864 4.224,8.064 4.224,20.16 0,16.512 -3.072,27.072 -2.88,10.56 -8.256,16.704 -5.376,6.144 -12.864,8.448 -7.296,2.304 -16.32,2.304 -3.456,0 -4.992,-1.92 -1.536,-1.92 -1.536,-9.216 0,-5.952 0,-12.864 0.192,-7.104 0.192,-14.4 z m 4.8,49.344 q 1.152,0 4.224,-0.768 3.072,-0.576 7.104,-1.728 4.224,-1.152 9.024,-2.88 4.8,-1.728 9.216,-3.84 4.608,-2.112 8.256,-4.608 3.84,-2.688 5.952,-5.568 3.456,-4.8 5.76,-9.6 2.304,-4.992 3.648,-10.944 1.536,-5.952 2.112,-13.44 0.576,-7.68 0.576,-17.664 0,-10.944 -3.648,-18.624 -3.648,-7.872 -9.216,-13.056 -5.376,-5.184 -11.904,-8.064 -6.528,-3.072 -12.288,-4.608 -5.568,-1.536 -9.6,-1.92 -4.032,-0.384 -4.608,-0.384 -1.344,0 -4.032,0.576 -2.496,0.384 -6.72,1.536 l -13.44,3.84 q -4.992,1.536 -6.528,2.688 -1.344,0.96 -1.344,3.648 0,2.112 0.96,2.688 1.152,0.384 2.304,0.576 1.344,0.192 2.496,0.576 1.344,0.192 1.728,1.92 0.576,2.688 1.152,6.912 0.576,4.032 0.96,8.832 0.576,4.8 0.768,9.792 0.384,4.8 0.384,9.024 0,10.368 -0.384,22.464 -0.384,12.096 -0.96,23.616 -0.192,3.84 -1.152,5.952 -0.96,2.112 -2.112,3.264 -0.96,1.152 -1.92,2.112 -0.768,0.768 -0.768,2.304 0,1.536 1.344,2.304 1.536,0.576 4.8,0.96 l 10.752,1.344 q 1.536,0.192 3.264,0.384 1.92,0.384 3.84,0.384 z m 91.00814,-51.456 q 0,1.536 1.728,2.112 1.92,0.576 4.608,0.576 13.44,0 21.12,-0.576 7.872,-0.576 11.52,-0.576 0.768,0 1.728,-0.576 1.152,-0.768 2.112,-1.536 1.152,-0.96 1.728,-1.92 0.768,-0.96 0.768,-1.344 0,-0.384 -0.192,-1.344 -0.192,-0.96 -0.576,-1.92 -0.192,-1.152 -0.768,-1.92 -0.576,-0.768 -1.536,-0.768 -2.304,0 -7.104,0.768 -4.608,0.576 -10.368,0.576 -4.224,0 -7.104,-0.384 -2.688,-0.384 -4.416,-0.96 -1.728,-0.576 -2.88,-0.96 -0.96,-0.384 -1.728,-0.384 -1.728,0 -3.264,1.536 -1.536,1.344 -2.688,3.264 -1.152,1.92 -1.92,3.84 -0.768,1.728 -0.768,2.496 z m 77.56803,-9.984 q 0,15.168 0,25.92 0.192,10.56 0.384,17.664 0.192,6.912 0.576,10.944 0.576,3.84 1.344,5.76 0.768,1.92 1.728,2.304 1.152,0.576 2.496,0.576 3.264,0 4.608,-3.84 1.536,-3.648 1.536,-15.168 0,-34.56 0.384,-54.336 0.576,-19.968 1.344,-28.416 0.192,-3.264 0.96,-5.568 0.96,-2.496 0.96,-4.8 0,-1.152 -2.688,-2.688 -2.688,-1.728 -4.8,-1.728 -1.344,0 -3.84,1.536 -2.304,1.344 -4.608,3.264 -2.304,1.92 -4.032,4.032 -1.728,2.112 -1.728,3.264 0,1.536 0.576,3.264 0.768,1.536 2.688,3.648 1.152,1.344 1.344,3.264 0.192,1.728 0.192,4.416 0,4.992 0.192,10.752 0.384,5.76 0.384,15.936 z"
       id="text1"
       transform="matrix(0.26458333,0,0,0.26458333,-8.1762522,-42.233731)"
       aria-label="Jed-i" />
    <path
       style="font-weight:bold;font-size:12.7px;font-family:'Apercu Pro';-inkscape-font-specification:'Apercu Pro Bold';stroke-width:0.264583"
       d="m 34.180381,47.578977 h 2.4638 v 7.366 h 1.651 v -7.366 h 2.4638 v -1.524 h -6.5786 z m 12.471416,4.0259 c 0,-1.397 -0.8509,-3.1623 -2.9845,-3.1623 -2.1971,0 -3.0734,1.7907 -3.0734,3.302 0,1.5113 0.8763,3.302 3.0734,3.302 1.5494,0 2.413,-0.7366 2.9083,-1.8669 l -1.27,-0.4699 c -0.381,0.6604 -0.8255,0.9906 -1.5494,0.9906 -0.9779,0 -1.4732,-0.7366 -1.5113,-1.4478 h 4.4069 z m -2.9845,-1.8161 c 0.8382,0 1.2319,0.5842 1.3716,1.2192 h -2.7559 c 0.1143,-0.6096 0.5842,-1.2192 1.3843,-1.2192 z m 8.877295,2.8575 c -0.3302,0.6731 -0.7874,1.0541 -1.4986,1.0541 -0.9906,0 -1.4732,-0.8255 -1.4732,-1.9558 0,-1.1303 0.4826,-1.9558 1.4732,-1.9558 0.7112,0 1.1684,0.381 1.4986,1.0541 l 1.4097,-0.5715 c -0.4826,-1.2065 -1.4859,-1.8288 -2.9083,-1.8288 -2.0828,0 -3.1242,1.4986 -3.1242,3.302 0,1.8034 1.0414,3.302 3.1242,3.302 1.4224,0 2.4257,-0.6223 2.9083,-1.8288 z m 2.679702,-6.6929 v 8.9916 h 1.5748 v -2.7051 c 0,-1.7272 0.7747,-2.4511 1.4986,-2.4511 0.6477,0 0.9525,0.3683 0.9525,1.143 v 4.0132 h 1.5748 v -4.572 c 0,-1.3081 -0.7874,-1.9304 -1.9939,-1.9304 -0.9271,0 -1.6256,0.4826 -2.032,1.1303 v -3.6195 z m 7.353306,2.5908 v 6.4008 h 1.5748 v -2.5527 c 0,-1.6891 0.6985,-2.6035 1.4605,-2.6035 0.5334,0 0.9144,0.2921 0.9144,1.0541 v 4.1021 h 1.5748 v -4.572 c 0,-1.2827 -0.8255,-1.9304 -1.9685,-1.9304 -0.8255,0 -1.5113,0.4572 -1.9812,1.1303 v -1.0287 z m 6.934202,3.2004 c 0,1.8542 1.1938,3.302 3.2512,3.302 2.0574,0 3.2512,-1.4478 3.2512,-3.302 0,-1.8542 -1.1938,-3.302 -3.2512,-3.302 -2.0574,0 -3.2512,1.4478 -3.2512,3.302 z m 1.651,0 c 0,-1.0541 0.5842,-1.9558 1.6002,-1.9558 1.016,0 1.6002,0.9017 1.6002,1.9558 0,1.0541 -0.5842,1.9558 -1.6002,1.9558 -1.016,0 -1.6002,-0.9017 -1.6002,-1.9558 z m 6.337297,-5.7912 v 8.9916 h 1.5748 v -8.9916 z m 3.035305,5.7912 c 0,1.8542 1.1938,3.302 3.2512,3.302 2.0574,0 3.251199,-1.4478 3.251199,-3.302 0,-1.8542 -1.193799,-3.302 -3.251199,-3.302 -2.0574,0 -3.2512,1.4478 -3.2512,3.302 z m 1.651,0 c 0,-1.0541 0.5842,-1.9558 1.6002,-1.9558 1.016,0 1.6002,0.9017 1.6002,1.9558 0,1.0541 -0.5842,1.9558 -1.6002,1.9558 -1.016,0 -1.6002,-0.9017 -1.6002,-1.9558 z m 6.388088,-1.143 c 0,0.5334 0.1651,0.9779 0.4445,1.3208 -0.4699,0.2794 -0.7874,0.7366 -0.7874,1.3462 0,0.4064 0.127,0.7493 0.3302,0.9906 -0.3302,0.3048 -0.5207,0.7493 -0.5207,1.27 0,1.397 1.2573,2.1082 2.8956,2.1082 1.4224,0 2.9083,-0.635 2.9083,-2.2098 0,-1.2319 -0.9017,-1.8796 -2.2479,-1.8796 h -1.3081 c -0.381,0 -0.5969,-0.1651 -0.5969,-0.4699 0,-0.2032 0.1143,-0.3683 0.3048,-0.4826 0.2794,0.0889 0.5969,0.1397 0.9271,0.1397 1.2954,0 2.3495,-0.7874 2.3495,-2.1336 0,-0.381 -0.0889,-0.7239 -0.254,-1.016 l 0.9144,-0.4572 -0.6223,-1.0414 -1.2065,0.635 c -0.3556,-0.1778 -0.7493,-0.2794 -1.1811,-0.2794 -1.2954,0 -2.3495,0.8255 -2.3495,2.159 z m 2.667,4.2672 c 0.5969,0 1.0287,0.127 1.0287,0.6604 0,0.5715 -0.5842,0.7874 -1.3335,0.7874 -0.8255,0 -1.4351,-0.3048 -1.4351,-0.9144 0,-0.2413 0.0381,-0.4318 0.1397,-0.5842 0.2286,0.0381 0.4699,0.0508 0.7366,0.0508 z m -1.1938,-4.2672 c 0,-0.5334 0.3683,-0.889 0.8763,-0.889 0.508,0 0.8763,0.3556 0.8763,0.889 0,0.5207 -0.3683,0.8636 -0.8763,0.8636 -0.508,0 -0.8763,-0.3429 -0.8763,-0.8636 z m 4.775186,-3.8989 c 0,0.5715 0.4318,1.016 1.016,1.016 0.5842,0 1.016,-0.4445 1.016,-1.016 0,-0.5715 -0.4318,-1.016 -1.016,-1.016 -0.5842,0 -1.016,0.4445 -1.016,1.016 z m 0.2286,1.8415 v 6.4008 h 1.5748 v -6.4008 z m 9.156712,3.0607 c 0,-1.397 -0.8509,-3.1623 -2.9845,-3.1623 -2.197099,0 -3.073399,1.7907 -3.073399,3.302 0,1.5113 0.8763,3.302 3.073399,3.302 1.5494,0 2.413,-0.7366 2.9083,-1.8669 l -1.27,-0.4699 c -0.381,0.6604 -0.8255,0.9906 -1.5494,0.9906 -0.9779,0 -1.473199,-0.7366 -1.511299,-1.4478 h 4.406899 z m -2.9845,-1.8161 c 0.8382,0 1.2319,0.5842 1.3716,1.2192 h -2.755899 c 0.1143,-0.6096 0.584199,-1.2192 1.384299,-1.2192 z m 6.3754,-1.3462 c -1.2446,0 -2.0447,0.8763 -2.0447,1.8669 0,0.9906 0.5969,1.4351 1.2954,1.7272 0.7747,0.3302 1.6002,0.4445 1.6002,0.9779 0,0.4699 -0.3048,0.6858 -0.7874,0.6858 -0.6223,0 -1.0541,-0.4318 -1.2827,-1.0541 l -1.2573,0.6731 c 0.3175,0.7874 1.2065,1.7272 2.54,1.7272 1.3843,0 2.2733,-0.9779 2.2733,-2.1336 0,-1.3716 -1.4351,-1.651 -2.3114,-1.9685 -0.381,-0.1397 -0.6096,-0.3429 -0.6096,-0.6223 0,-0.3556 0.2794,-0.5334 0.5842,-0.5334 0.3556,0 0.7747,0.1778 1.0668,0.5588 l 0.9398,-0.8636 c -0.3937,-0.6223 -1.143,-1.0414 -2.0066,-1.0414 z"
       id="text2"
       aria-label="Technologies" />
  </g>
</svg>
